<svg width="24" height="24" viewBox="0 0 24 24" fill="none" xmlns="http://www.w3.org/2000/svg">
<path d="M19.9994 12.0002L17.9994 12.5002C17.1266 12.5765 16.2477 12.4608 15.4244 12.1611C14.6011 11.8615 13.8534 11.3852 13.2339 10.7656C12.6144 10.1461 12.1381 9.39846 11.8384 8.57518C11.5388 7.75189 11.423 6.87297 11.4994 6.00018L11.9994 4.00018L19.9994 12.0002Z" stroke="#4232D5" stroke-width="2" stroke-linecap="round" stroke-linejoin="round"/>
<path d="M20 12.0002C20 13.5824 19.5308 15.1291 18.6518 16.4447C17.7727 17.7603 16.5233 18.7857 15.0615 19.3912C13.5997 19.9967 11.9911 20.1551 10.4393 19.8465C8.88743 19.5378 7.46197 18.7759 6.34315 17.657C5.22433 16.5382 4.4624 15.1128 4.15372 13.5609C3.84504 12.0091 4.00347 10.4005 4.60897 8.93872C5.21447 7.47691 6.23985 6.22748 7.55544 5.34843C8.87103 4.46938 10.4178 4.00018 12 4.00018" stroke="#4232D5" stroke-width="2" stroke-linecap="round" stroke-linejoin="round"/>
</svg>
